<?xml version="1.0" encoding="UTF-8" standalone="no"?>
<!-- Created with Inkscape (http://www.inkscape.org/) -->

<svg
   width="100"
   height="100"
   viewBox="0 0 26.458333 26.458333"
   version="1.1"
   id="svg1"
   inkscape:version="1.3.2 (091e20e, 2023-11-25, custom)"
   sodipodi:docname="we eh.svg"
   xmlns:inkscape="http://www.inkscape.org/namespaces/inkscape"
   xmlns:sodipodi="http://sodipodi.sourceforge.net/DTD/sodipodi-0.dtd"
   xmlns="http://www.w3.org/2000/svg"
   xmlns:svg="http://www.w3.org/2000/svg">
  <sodipodi:namedview
     id="namedview1"
     pagecolor="#ffffff"
     bordercolor="#000000"
     borderopacity="0.25"
     inkscape:showpageshadow="2"
     inkscape:pageopacity="0.0"
     inkscape:pagecheckerboard="0"
     inkscape:deskcolor="#d1d1d1"
     inkscape:document-units="mm"
     showgrid="true"
     inkscape:zoom="11.217621"
     inkscape:cx="28.526549"
     inkscape:cy="49.43116"
     inkscape:window-width="1920"
     inkscape:window-height="1001"
     inkscape:window-x="-9"
     inkscape:window-y="-9"
     inkscape:window-maximized="1"
     inkscape:current-layer="layer1">
    <inkscape:grid
       id="grid1"
       units="px"
       originx="0"
       originy="0"
       spacingx="3.3072916"
       spacingy="3.3072916"
       empcolor="#0099e5"
       empopacity="0.30196078"
       color="#0099e5"
       opacity="0.14901961"
       empspacing="4"
       dotted="false"
       gridanglex="30"
       gridanglez="30"
       visible="true" />
  </sodipodi:namedview>
  <defs
     id="defs1">
    <clipPath
       clipPathUnits="userSpaceOnUse"
       id="clipPath1">
      <rect
         style="fill:#5955a8;fill-opacity:1;stroke:none;stroke-width:2.3031;stroke-opacity:1"
         id="rect2"
         width="26.458334"
         height="26.458334"
         x="0"
         y="0" />
    </clipPath>
    <clipPath
       clipPathUnits="userSpaceOnUse"
       id="clipPath1-3">
      <rect
         style="fill:#5955a8;fill-opacity:1;stroke:none;stroke-width:2.3031;stroke-opacity:1"
         id="rect2-7"
         width="26.458334"
         height="26.458334"
         x="0"
         y="0" />
    </clipPath>
  </defs>
  <g
     inkscape:label="Layer 1"
     inkscape:groupmode="layer"
     id="layer1">
    <path
       style="fill:#5955a8;fill-opacity:1;stroke:#534f9c;stroke-width:1;stroke-opacity:1"
       d="m -1.447804,12.477657 c 3.3275204,-0.334706 3.5005129,-0.326648 4.3253454,-0.401418 2.7912709,-0.253026 5.2361816,0 6.5570202,0.188691 1.3208384,0.188691 4.4814164,0.566074 5.6135644,0.566074 1.132147,0 4.811626,-0.754765 6.22681,-0.849111 1.415185,-0.09434 5.094663,0.235864 5.8966,0.518901 0.801939,0.283037 1.65105,2.358641 0.14152,2.547332 -1.50953,0.188691 -3.892853,-0.07233 -4.976731,-0.02359 -1.254171,0.0564 -3.208632,0.734795 -4.552177,1.014215 -1.321135,0.27476 -2.378384,0.315771 -5.04749,-0.259447 -1.344445,-0.289741 -4.5316624,-0.688386 -5.1890088,-0.684006 -1.2300894,0.0082 -4.6582551,0.309197 -6.3380798,0.121243 -2.7407924,-0.306665 -3.0104752,-0.389971 -3.0104752,-0.389971 z"
       id="path1"
       clip-path="url(#clipPath1)"
       sodipodi:nodetypes="cssscssssssscc" />
  </g>
</svg>
