<?xml version="1.0" encoding="UTF-8" standalone="no"?>
<!-- Created with Inkscape (http://www.inkscape.org/) -->

<svg
   width="300mm"
   height="1000mm"
   viewBox="0 0 300 1000"
   version="1.1"
   id="svg1"
   xml:space="preserve"
   inkscape:version="1.3.2 (091e20e, 2023-11-25, custom)"
   sodipodi:docname="sward.svg"
   xmlns:inkscape="http://www.inkscape.org/namespaces/inkscape"
   xmlns:sodipodi="http://sodipodi.sourceforge.net/DTD/sodipodi-0.dtd"
   xmlns:xlink="http://www.w3.org/1999/xlink"
   xmlns="http://www.w3.org/2000/svg"
   xmlns:svg="http://www.w3.org/2000/svg"><sodipodi:namedview
     id="namedview1"
     pagecolor="#ffffff"
     bordercolor="#000000"
     borderopacity="0.25"
     inkscape:showpageshadow="2"
     inkscape:pageopacity="0.0"
     inkscape:pagecheckerboard="0"
     inkscape:deskcolor="#d1d1d1"
     inkscape:document-units="mm"
     inkscape:zoom="0.1767767"
     inkscape:cx="-475.17574"
     inkscape:cy="1134.1992"
     inkscape:window-width="1920"
     inkscape:window-height="1001"
     inkscape:window-x="-9"
     inkscape:window-y="-9"
     inkscape:window-maximized="1"
     inkscape:current-layer="layer1"
     showgrid="false" /><defs
     id="defs1"><color-profile
       name="Agfa-:-Swop-Standard"
       xlink:href="file:///C:/WINDOWS/system32/spool/drivers/color/RSWOP.icm"
       id="color-profile1" /><clipPath
       clipPathUnits="userSpaceOnUse"
       id="clipPath67"><rect
         style="fill:#67676a;fill-opacity:1;stroke:#000000;stroke-width:1.04893;stroke-dasharray:none;stroke-opacity:1"
         id="rect67"
         width="113.3268"
         height="66.92881"
         x="68.8731"
         y="574.01245" /></clipPath><clipPath
       clipPathUnits="userSpaceOnUse"
       id="clipPath68"><rect
         style="fill:#67676a;fill-opacity:1;stroke:#000000;stroke-width:1;stroke-dasharray:none;stroke-opacity:1"
         id="rect69"
         width="139.94231"
         height="68.100273"
         x="53.133183"
         y="668.65491" /></clipPath><clipPath
       clipPathUnits="userSpaceOnUse"
       id="clipPath100"><path
         style="opacity:1;fill:#3b3b3c;fill-opacity:1;stroke:none;stroke-width:9.9325;stroke-linecap:round;stroke-linejoin:round;stroke-dasharray:none;stroke-opacity:1"
         d="m 114.36727,576.93263 -0.45943,7.9023 17.3667,11.57781 9.55628,4.50248 c 0,0 7.53476,0.91887 9.09685,-3.03229 1.56208,-3.95115 2.29718,-19.66388 2.29718,-19.66388 0,0 -33.99831,-4.77814 -34.36586,-4.87003 -0.36755,-0.0919 -3.49172,3.58361 -3.49172,3.58361 z"
         id="path101" /></clipPath></defs><g
     inkscape:label="Layer 1"
     inkscape:groupmode="layer"
     id="layer1"><g
       id="g77"
       inkscape:label="lower R"
       style="stroke-width:1.5;stroke-dasharray:none"
       transform="translate(46.397989,34.424314)"><path
         style="display:inline;opacity:1;fill:#67676a;fill-opacity:1;stroke:none;stroke-width:1.5;stroke-dasharray:none;stroke-opacity:1"
         d="m 111.05535,344.85607 c 0,0 31.78229,29.95572 41.28045,8.76751 0.91328,10.22879 -0.75276,32.40111 -1.97498,48.55247 -2.49667,32.99295 -3.10338,66.51083 -10.93658,98.65752 l -11.26193,46.21789 -2.26337,13.19324 -12.36617,-28.71462 -12.45021,28.76546 -11.433363,-19.99129 -6.850042,-54.68547 c -4.384005,-34.99853 -2.987703,-60.74962 2.684238,-73.545 16.517267,-37.26146 25.571957,-67.21771 25.571957,-67.21771 z"
         id="path17"
         sodipodi:nodetypes="ccascccccssc"
         inkscape:label="fill" /><path
         style="display:inline;opacity:1;fill:#3b3b3c;fill-opacity:1;stroke:none;stroke-width:1.5;stroke-dasharray:none;stroke-opacity:1"
         d="m 135.72007,515.78253 -7.55776,31.26893 -2.26337,13.19324 -12.36617,-28.71462 -12.45021,28.76546 -11.433363,-19.99129 -3.939625,-32.85734 15.216758,37.99472 12.54224,-17.413 11.05789,16.07674 c 0,0 8.73612,-24.86978 11.19361,-28.32284 z"
         id="path102"
         sodipodi:nodetypes="ccccccccccc"
         inkscape:label="lower shadow" /><path
         style="display:inline;opacity:1;fill:#3b3b3c;fill-opacity:1;stroke:none;stroke-width:1.5;stroke-dasharray:none;stroke-opacity:1"
         d="m 111.05535,344.85607 c 0,0 31.78229,29.95572 41.28045,8.76751 0.91328,10.22879 1.21832,0.54446 -0.004,16.69582 -1.22796,6.30302 -23.83742,-6.46328 -35.00352,-3.36798 -9.18212,2.54533 -16.8775,23.5622 -24.894945,40.95376 -7.201451,15.6215 -8.551711,20.44218 -12.001436,41.58633 -1.002255,-26.95617 6.279404,-41.70263 16.103465,-64.02232 9.050146,-20.56139 14.519886,-40.61312 14.519886,-40.61312 z"
         id="path95"
         sodipodi:nodetypes="cccsscscc"
         inkscape:label="upper shadow" /><path
         style="display:inline;opacity:1;fill:none;fill-opacity:1;stroke:#000000;stroke-width:1.5;stroke-dasharray:none;stroke-opacity:1"
         d="m 111.05535,344.85607 c 0,0 31.78229,29.95572 41.28045,8.76751 0.41034,4.59586 -2.28107,103.58348 -12.91156,147.20999 l -11.26193,46.21789 -2.26337,13.19324 -12.36617,-28.71462 -12.45021,28.76546 -11.433363,-19.99129 -6.850042,-54.68547 C 70.207758,433.70705 96.384661,392.44772 111.05535,344.85607 Z"
         id="path94"
         sodipodi:nodetypes="ccscccccsc"
         inkscape:label="outline" /></g><g
       id="g1"
       inkscape:label="upper R"
       style="stroke-width:1.5;stroke-dasharray:none"
       transform="translate(46.397989,34.424314)"><path
         style="display:inline;fill:#67676a;fill-opacity:1;stroke:none;stroke-width:1.5;stroke-dasharray:none;stroke-opacity:1"
         d="m 117.97551,311.29133 c 13.73238,-68.36952 17.74363,-162.31871 16.1788,-226.645151 9.58413,37.357651 28.22712,179.094401 17.09452,261.802841 -11.72115,15.85714 -40.23401,-0.52824 -33.27332,-35.15769 z"
         id="path2"
         sodipodi:nodetypes="cccc"
         inkscape:label="fil" /><path
         style="display:inline;fill:#3b3b3c;fill-opacity:1;stroke:none;stroke-width:1.5;stroke-dasharray:none;stroke-opacity:1"
         d="m 117.97551,311.29133 c 3.4331,-17.09238 9.00956,-57.49623 11.58288,-79.90224 2.4322,10.13735 1.43032,31.49535 -0.86207,70.57807 -1.64798,29.9527 -3.42872,36.75709 2.7849,48.54781 -11.33832,-6.67932 -16.98605,-21.90891 -13.50571,-39.22364 z"
         id="path16"
         sodipodi:nodetypes="ccccc"
         inkscape:label="shadow" /><path
         style="display:inline;fill:#80d5d2;fill-opacity:1;stroke:none;stroke-width:1.5;stroke-dasharray:none;stroke-opacity:1"
         d="M 150.5722,293.138 C 149.97018,221.5009 139.98741,145.63807 133.896,84.904495 c 4.79206,18.678825 14.17368,70.104065 17.86592,128.489715 1.84612,29.19283 3.94697,29.06963 3.34457,57.5444 -2.78559,131.67099 -4.73737,24.82243 -4.53429,22.19939 z"
         id="path15"
         sodipodi:nodetypes="ccssc"
         inkscape:label="light(edge)" /><path
         style="display:inline;fill:none;fill-opacity:1;stroke:#000000;stroke-width:1.5;stroke-dasharray:none;stroke-opacity:1"
         d="m 117.97551,311.29133 c 13.73238,-68.36952 17.48532,-164.38524 15.92049,-228.711677 9.58413,37.357647 28.48543,181.160927 17.35283,263.869367 -11.72115,15.85714 -40.23401,-0.52824 -33.27332,-35.15769 z"
         id="path5"
         sodipodi:nodetypes="cccc"
         inkscape:label="outline" /></g><g
       id="g8"
       inkscape:label="lower L"
       style="display:inline;stroke-width:1.5;stroke-dasharray:none"
       transform="translate(46.397989,40.623892)"><path
         style="display:inline;fill:#67676a;fill-opacity:1;stroke:#000000;stroke-width:1.5;stroke-dasharray:none;stroke-opacity:1"
         d="m 49.596626,326.51112 c 0,0 9.299366,61.99578 21.698524,86.7941 4.133051,60.96252 12.399156,117.79198 12.399156,117.79198 0,0 -41.33052,-94.02693 -34.09768,-204.58608 z"
         id="path6"
         inkscape:label="fill" /><path
         style="fill:#80d5d2;fill-opacity:1;stroke:none;stroke-width:1.5;stroke-dasharray:none;stroke-opacity:1"
         d="m 49.822652,326.44654 c 0,0 0.471849,6.8961 2.676253,17.78431 0.135571,58.72753 4.760747,86.4778 31.23877,185.70583 0,0 -41.147863,-92.93099 -33.915023,-203.49014 z"
         id="path8"
         sodipodi:nodetypes="cccc"
         inkscape:label="light(edge)" /><path
         style="fill:#3b3b3c;fill-opacity:1;stroke:none;stroke-width:1.5;stroke-dasharray:none;stroke-opacity:1"
         d="m 56.166974,362.02583 c 0,0 9.13284,42.37638 14.977859,51.32657 0.730628,7.03228 3.927123,46.39483 3.927123,46.39483 0,0 -16.987086,-51.32656 -18.904982,-97.7214 z"
         id="path14"
         sodipodi:nodetypes="cccc" /><path
         style="display:inline;fill:none;fill-opacity:1;stroke:#000000;stroke-width:1.5;stroke-dasharray:none;stroke-opacity:1"
         d="m 49.596626,326.51112 c 0,0 9.299366,61.99578 21.698524,86.7941 4.133051,60.96252 12.399156,117.79198 12.399156,117.79198 0,0 -41.33052,-94.02693 -34.09768,-204.58608 z"
         id="path7"
         inkscape:label="outline" /></g><g
       id="g10"
       inkscape:label="middle L"
       style="stroke-width:1.5;stroke-dasharray:none"
       transform="translate(46.397989,34.424314)"><path
         style="fill:#67676a;fill-opacity:1;stroke:none;stroke-width:1.5;stroke-dasharray:none;stroke-opacity:1"
         d="M 79.815657,394.61523 C 80.775596,405.39895 125.93655,310.13969 106.84887,235.33848 93.821887,184.28809 90.775066,169.58203 91.505689,134.51192 17.129003,250.27274 75.837314,393.81957 79.815657,394.61523 Z"
         id="path9"
         sodipodi:nodetypes="cscc"
         inkscape:label="fill" /><path
         style="fill:#80d5d2;fill-opacity:1;stroke:none;stroke-width:1.5;stroke-dasharray:none;stroke-opacity:1"
         d="m 79.815657,394.61523 c 2.317967,11.12323 -41.491434,-135.90952 11.146794,-252.14127 3.104213,-6.85449 -0.187385,27.10807 0.543238,-7.96204 C 17.129003,250.27274 75.837314,393.81957 79.815657,394.61523 Z"
         id="path3"
         sodipodi:nodetypes="cscc"
         inkscape:label="light(edge)" /><path
         style="display:inline;fill:#3b3b3c;fill-opacity:1;stroke:none;stroke-width:1.5;stroke-dasharray:none;stroke-opacity:1"
         d="m 93.381146,174.10482 c 0,0 1.033264,9.17021 3.487264,20.92358 2.454,11.75337 10.46179,42.49294 10.46179,42.49294 l 2.19568,10.84926 2.06653,20.01948 -1.93737,38.10157 c 0,0 -10.97842,-55.40874 -19.50284,-83.56515 -4.894563,-16.16689 3.228946,-48.82168 3.228946,-48.82168 z"
         id="path13"
         inkscape:label="shadow"
         sodipodi:nodetypes="csccccsc" /><path
         style="fill:none;fill-opacity:1;stroke:#000000;stroke-width:1.5;stroke-dasharray:none;stroke-opacity:1"
         d="M 79.815657,394.61523 C 80.775596,405.39895 125.93655,310.13969 106.84887,235.33848 93.821887,184.28809 90.775066,169.58203 91.505689,134.51192 17.129003,250.27274 75.837314,393.81957 79.815657,394.61523 Z"
         id="path10"
         sodipodi:nodetypes="cscc"
         inkscape:label="outline" /></g><g
       id="g11"
       inkscape:label="upper L"
       style="display:inline;stroke-width:1.5;stroke-dasharray:none"
       transform="translate(46.397989,34.424314)"><path
         style="fill:#67676a;fill-opacity:1;stroke:none;stroke-width:1.5;stroke-dasharray:none;stroke-opacity:1"
         d="m 118.60365,239.79046 c 0,0 -28.274169,-71.4053 -16.64996,-133.40108 11.6242,-61.995768 19.97134,-86.757371 19.97134,-86.757371 -0.20803,1.253874 15.71555,85.532121 -3.32138,220.158451 z"
         id="path4"
         sodipodi:nodetypes="cscc"
         inkscape:label="fill" /><path
         style="display:inline;fill:#80d5d2;fill-opacity:1;stroke:none;stroke-width:1.5;stroke-dasharray:none;stroke-opacity:1"
         d="m 118.60365,239.79046 c 0,0 -29.526607,-71.65328 -16.64996,-133.40108 12.08084,-57.931654 13.15633,-60.809423 19.97134,-86.757371 0.2629,15.39685 -28.801824,116.394511 -3.32138,220.158451 z"
         id="path11"
         sodipodi:nodetypes="cscc"
         inkscape:label="light(edge)" /><path
         style="display:inline;fill:#3b3b3c;fill-opacity:1;stroke:none;stroke-width:1.5;stroke-dasharray:none;stroke-opacity:1"
         d="m 118.60365,239.79046 c 0,0 -6.90418,-26.11813 3.37961,-102.85845 8.3778,-62.517274 -0.0582,-117.300001 -0.0582,-117.300001 -0.20803,1.253874 15.71555,85.532121 -3.32138,220.158451 z"
         id="path1"
         sodipodi:nodetypes="cscc"
         inkscape:label="shadow" /><path
         style="display:inline;fill:none;fill-opacity:1;stroke:#000000;stroke-width:1.5;stroke-dasharray:none;stroke-opacity:1"
         d="m 118.60365,239.79046 c 0,0 -28.274169,-71.4053 -16.64996,-133.40108 11.6242,-61.995768 19.97134,-86.757371 19.97134,-86.757371 -0.20803,1.253874 15.71555,85.532121 -3.32138,220.158451 z"
         id="path12"
         sodipodi:nodetypes="cscc"
         inkscape:label="outline" /></g><g
       id="g63"
       inkscape:label="cross guard L"
       style="display:inline;stroke-width:2.33916;stroke-dasharray:none"
       transform="matrix(0.07184481,0.76256239,0.55206316,0.13602182,80.823477,256.98527)"><g
         id="g78"
         inkscape:label="segment"
         style="stroke-width:2.33916;stroke-dasharray:none"><path
           style="fill:#67676a;fill-opacity:1;stroke:none;stroke-width:2.33916;stroke-dasharray:none;stroke-opacity:1"
           d="m 396.74073,13.907617 c 0,0 -31.9489,-58.937775 -15.37336,-121.106377 9.30931,-34.9157 18.11923,-55.93815 18.11923,-55.93815 2.31444,6.07768 16.29106,42.4182 -2.74587,177.044527 z"
           id="path60"
           sodipodi:nodetypes="cscc"
           inkscape:label="fill" /><path
           style="display:inline;fill:#80d5d2;fill-opacity:1;stroke:none;stroke-width:2.33916;stroke-dasharray:none;stroke-opacity:1"
           d="m 396.74073,13.907617 c 0.49929,-1.132584 -28.68779,-51.889312 -18.26665,-106.831231 5.93589,-31.294936 13.00439,-51.204396 21.34315,-72.078746 -1.61638,21.99031 -34.80708,101.582762 -3.0765,178.909977 z"
           id="path61"
           sodipodi:nodetypes="cscc"
           inkscape:label="light(edge)" /><path
           style="display:inline;fill:#3b3b3c;fill-opacity:1;stroke:none;stroke-width:2.33916;stroke-dasharray:none;stroke-opacity:1"
           d="m 396.74073,13.907617 c 0,0 -8.74069,3.30906 3.37961,-102.85845 7.14876,-62.619417 0.23231,-75.162677 0.23231,-75.162677 -0.20803,1.25387 15.42504,43.3948 -3.61189,178.021127 z"
           id="path62"
           sodipodi:nodetypes="csccc"
           inkscape:label="shadow" /><path
           style="display:inline;fill:none;fill-opacity:1;stroke:#000000;stroke-width:2.33916;stroke-dasharray:none;stroke-opacity:1"
           d="m 396.74073,13.907617 c 0,0 -30.40902,-52.040497 -16.95385,-114.191017 5.99983,-27.71371 19.94726,-64.24128 19.94726,-64.24128 4.36026,18.28164 16.04352,43.80597 -2.99341,178.432297 z"
           id="path63"
           sodipodi:nodetypes="cscc"
           inkscape:label="outline" /></g><g
         id="g79"
         inkscape:label="support"
         style="stroke-width:2.33916;stroke-dasharray:none"><path
           style="display:inline;fill:#67676a;fill-opacity:1;stroke:none;stroke-width:1.5;stroke-dasharray:none;stroke-opacity:1"
           d="m 18.801939,545.03904 c 17.072637,1.90034 34.163086,3.84343 50.020099,2.82628 l 24.78488,69.01599 C 73.069167,583.56687 71.276184,557.48039 18.801939,545.03904 Z"
           id="path69"
           sodipodi:nodetypes="cccc"
           transform="matrix(-0.24478806,1.8395811,1.3608423,-0.29222466,-324.83911,46.650335)"
           inkscape:label="fill" /><path
           style="display:inline;fill:#3b3b3c;fill-opacity:1;stroke:none;stroke-width:1.5;stroke-dasharray:none;stroke-opacity:1"
           d="m 18.801939,545.03904 c 17.072637,1.90034 18.590637,2.31378 30.21871,2.59703 16.929136,4.65464 37.487231,45.07373 44.586269,69.24524 C 73.069167,583.56687 71.276184,557.48039 18.801939,545.03904 Z"
           id="path96"
           sodipodi:nodetypes="cccc"
           transform="matrix(-0.24478806,1.8395811,1.3608423,-0.29222466,-324.83911,46.650333)"
           inkscape:label="shadow" /><path
           style="display:inline;fill:none;fill-opacity:1;stroke:#000000;stroke-width:1.5;stroke-dasharray:none;stroke-opacity:1"
           d="m 18.801939,545.03904 c 17.072637,1.90034 34.163086,3.84343 50.020099,2.82628 l 24.78488,69.01599 C 73.069167,583.56687 71.276184,557.48039 18.801939,545.03904 Z"
           id="path79"
           sodipodi:nodetypes="cccc"
           transform="matrix(-0.24478806,1.8395811,1.3608423,-0.29222466,-324.83911,46.650335)"
           inkscape:label="outline" /></g></g><g
       id="g75"
       inkscape:label="hilt R"
       style="stroke-width:1.5;stroke-dasharray:none"
       transform="translate(46.397989,34.424314)"><path
         style="display:inline;fill:#67676a;fill-opacity:1;stroke:none;stroke-width:1.5;stroke-dasharray:none;stroke-opacity:1"
         d="m 136.25639,537.44183 -19.9856,68.60602 4.47057,186.34972 24.22053,-43.19305 -11.63334,-58.13386 z"
         id="path64"
         sodipodi:nodetypes="cccccc"
         inkscape:label="fill" /><path
         style="display:inline;fill:#3b3b3c;fill-opacity:1;stroke:none;stroke-width:1.5;stroke-dasharray:none;stroke-opacity:1"
         d="m 136.25639,537.44183 -19.9856,68.60602 0.39294,7.71869 18.91378,-51.0188 z"
         id="path108"
         sodipodi:nodetypes="ccccc"
         inkscape:label="shadow" /><path
         style="display:inline;fill:none;fill-opacity:1;stroke:#000000;stroke-width:1.5;stroke-dasharray:none;stroke-opacity:1"
         d="m 136.25639,537.44183 -19.9856,68.60602 4.47057,186.34972 24.22053,-43.19305 -11.63334,-58.13386 z"
         id="path107"
         sodipodi:nodetypes="cccccc"
         inkscape:label="outline" /></g><g
       id="g76"
       inkscape:label="hilt L"
       style="stroke-width:1.5;stroke-dasharray:none"
       transform="translate(46.397989,34.424314)"><path
         style="display:inline;fill:#67676a;fill-opacity:1;stroke:none;stroke-width:1.5;stroke-dasharray:none;stroke-opacity:1"
         d="m 96.106033,564.25654 -19.644643,-32.88251 22.357687,86.2225 -8.44339,140.23906 26.393803,26.5758 -4.09618,-178.45838 -9.61255,-20.23479 z"
         id="path65"
         sodipodi:nodetypes="cccccccc"
         inkscape:label="fill" /><path
         style="display:inline;fill:#3b3b3c;fill-opacity:1;stroke:none;stroke-width:1.5;stroke-dasharray:none;stroke-opacity:1"
         d="m 96.106033,564.25654 -19.644643,-32.88251 5.663249,22.14481 30.753591,61.91687 -0.20492,-9.4827 -9.61255,-20.23479 z"
         id="path106"
         sodipodi:nodetypes="ccccccc"
         inkscape:label="shadow" /><path
         style="display:inline;fill:none;fill-opacity:1;stroke:#000000;stroke-width:1.5;stroke-dasharray:none;stroke-opacity:1"
         d="m 96.106033,564.25654 -19.644643,-32.88251 22.357687,86.2225 -8.44339,140.23906 26.393803,26.5758 -4.09618,-178.45838 -9.61255,-20.23479 z"
         id="path105"
         sodipodi:nodetypes="cccccccc"
         inkscape:label="outline" /></g><g
       id="g74"
       inkscape:label="cross guard R"
       style="display:inline;stroke-width:3.2506;stroke-dasharray:none"
       transform="matrix(0.07858382,0.47822517,-0.40973278,0.21626252,156.40653,370.79048)"><g
         id="g97"
         inkscape:label="segment"><path
           style="fill:#67676a;fill-opacity:1;stroke:none;stroke-width:3.2506;stroke-dasharray:none;stroke-opacity:1"
           d="m 397.73009,3.3782903 c 0,0 -28.27417,-71.4053003 -16.64996,-133.4010803 11.6242,-61.99577 19.97134,-86.75737 19.97134,-86.75737 -0.20803,1.25387 15.71555,85.53212 -3.32138,220.1584503 z"
           id="path71"
           sodipodi:nodetypes="cscc"
           inkscape:label="fill" /><path
           style="display:inline;fill:#80d5d2;fill-opacity:1;stroke:none;stroke-width:3.2506;stroke-dasharray:none;stroke-opacity:1"
           d="m 397.73008,3.3782903 c 0,0 -29.52661,-71.6532803 -16.64996,-133.4010803 12.08084,-57.93166 13.15633,-60.80943 19.97134,-86.75737 -1.93466,24.39291 -37.14039,158.59617 -3.32138,220.1584503 z"
           id="path72"
           sodipodi:nodetypes="cscc"
           inkscape:label="light(edge)" /><path
           style="display:inline;fill:#3b3b3c;fill-opacity:1;stroke:none;stroke-width:3.2506;stroke-dasharray:none;stroke-opacity:1"
           d="m 397.73008,3.3782903 c 0,0 -8.74069,3.30906 3.37961,-102.8584503 7.14876,-62.61942 -0.0582,-117.3 -0.0582,-117.3 -0.20803,1.25387 15.71555,85.53212 -3.32138,220.1584503 z"
           id="path73"
           sodipodi:nodetypes="csccc"
           inkscape:label="shadow" /><path
           style="display:inline;fill:none;fill-opacity:1;stroke:#000000;stroke-width:3.2506;stroke-dasharray:none;stroke-opacity:1"
           d="m 397.73008,3.3782903 c 0,0 -28.27417,-71.4053003 -16.64996,-133.4010803 11.6242,-61.99577 19.97134,-86.75737 19.97134,-86.75737 -0.20803,1.25387 15.71555,85.53212 -3.32138,220.1584503 z"
           id="path74"
           sodipodi:nodetypes="cscc"
           inkscape:label="outline" /></g><g
         id="g98"
         inkscape:label="support"
         style="display:inline"><path
           style="display:inline;fill:#67676a;fill-opacity:1;stroke:none;stroke-width:1.5;stroke-dasharray:none;stroke-opacity:1"
           d="m 198.15199,505.76207 c -18.51864,10.11329 -37.65246,19.09877 -57.66672,26.47008 l 1.58047,56.27456 c 6.57951,-43.01143 13.68137,-58.4839 56.08625,-82.74464 z"
           id="path70"
           sodipodi:nodetypes="cccc"
           transform="matrix(1.0156066,-2.245829,1.9241768,0.36904336,-758.95336,122.92667)"
           inkscape:label="fill" /><path
           style="display:inline;fill:#3b3b3c;fill-opacity:1;stroke:none;stroke-width:1.5;stroke-dasharray:none;stroke-opacity:1"
           d="m 198.15199,505.76207 c -18.51864,10.11329 -17.83597,9.2972 -37.28799,18.32215 -20.42173,23.27421 -18.42546,43.04187 -18.79826,64.42249 6.57951,-43.01143 13.68137,-58.4839 56.08625,-82.74464 z"
           id="path99"
           sodipodi:nodetypes="cccc"
           transform="matrix(1.0156066,-2.245829,1.9241768,0.36904337,-758.95336,122.92667)"
           inkscape:label="shadow" /><path
           style="display:inline;fill:none;fill-opacity:1;stroke:#000000;stroke-width:1.5;stroke-dasharray:none;stroke-opacity:1"
           d="m 198.15199,505.76207 c -18.51864,10.11329 -37.65246,19.09877 -57.66672,26.47008 l 1.58047,56.27456 c 6.57951,-43.01143 13.68137,-58.4839 56.08625,-82.74464 z"
           id="path98"
           sodipodi:nodetypes="cccc"
           transform="matrix(1.0156066,-2.245829,1.9241768,0.36904336,-758.95336,122.92667)"
           inkscape:label="outline" /></g></g><g
       id="g80"
       inkscape:label="crystal"
       style="display:inline;stroke-width:1.5;stroke-dasharray:none"
       transform="translate(46.397989,34.424314)"><path
         style="fill:#15e7ea;fill-opacity:1;stroke:none;stroke-width:1.5;stroke-dasharray:none;stroke-opacity:1"
         d="m 113.37573,601.30297 -11.59949,-34.7985 11.95487,-26.32469 10.12159,24.45382 z"
         id="path75"
         sodipodi:nodetypes="ccccc"
         inkscape:label="fill" /><path
         style="fill:#e1fcfd;fill-opacity:1;stroke:none;stroke-width:1.5;stroke-dasharray:none;stroke-opacity:1"
         d="m 113.77084,541.07291 10.18645,23.74636 -4.56407,-0.0662 -5.82082,-15.41196 z"
         id="path80"
         sodipodi:nodetypes="ccccc"
         inkscape:label="light" /><path
         style="display:inline;fill:#0ebabd;fill-opacity:1;stroke:none;stroke-width:1.5;stroke-dasharray:none;stroke-opacity:1"
         d="m 113.4401,601.19948 -11.31093,-34.66043 3.04272,5e-5 7.80519,24.73854 z"
         id="path81"
         sodipodi:nodetypes="ccccc"
         inkscape:label="shadow" /><path
         style="fill:#89f4f6;fill-opacity:1;stroke:none;stroke-width:1.5;stroke-dasharray:none;stroke-opacity:1"
         d="m 113.56282,549.29232 -8.32545,17.39924 -3.27405,-0.18709 11.78659,-25.63114 z"
         id="path83"
         inkscape:label="mid upper" /><path
         style="fill:#89f4f6;fill-opacity:1;stroke:none;stroke-width:1.5;stroke-dasharray:none;stroke-opacity:1"
         d="m 119.45611,564.44652 4.67722,0.0935 -10.94469,36.57584 -0.28063,-9.63507 z"
         id="path84"
         inkscape:label="mid lower" /><path
         style="fill:none;fill-opacity:1;stroke:#000000;stroke-width:1.5;stroke-dasharray:none;stroke-opacity:1"
         d="m 113.37573,601.30297 -11.59949,-34.7985 11.95487,-26.32469 10.12159,24.45382 z"
         id="path82"
         sodipodi:nodetypes="ccccc"
         inkscape:label="outline" /></g></g></svg>
